<svg width="18" height="16" viewBox="0 0 18 16" fill="none" xmlns="http://www.w3.org/2000/svg">
<path d="M6.12862 15.377C7.05173 15.377 7.80006 14.7316 7.80006 13.9354C7.80006 13.1392 7.05173 12.4938 6.12862 12.4938C5.20551 12.4938 4.45718 13.1392 4.45718 13.9354C4.45718 14.7316 5.20551 15.377 6.12862 15.377Z" fill="white"/>
<path d="M13.3715 15.377C14.2947 15.377 15.043 14.7316 15.043 13.9354C15.043 13.1392 14.2947 12.4938 13.3715 12.4938C12.4484 12.4938 11.7001 13.1392 11.7001 13.9354C11.7001 14.7316 12.4484 15.377 13.3715 15.377Z" fill="white"/>
<path d="M15.043 10.8119H6.12862C6.05474 10.8119 5.98388 10.7866 5.93164 10.7415C5.8794 10.6965 5.85005 10.6354 5.85005 10.5717C5.85005 10.5079 5.8794 10.4468 5.93164 10.4018C5.98388 10.3567 6.05474 10.3314 6.12862 10.3314H15.08L17.89 3.36371H4.81459L3.69361 0H0.835721C0.614074 0 0.401505 0.0759406 0.244777 0.211116C0.0880489 0.346291 0 0.529628 0 0.720795C0 0.911961 0.0880489 1.0953 0.244777 1.23047C0.401505 1.36565 0.614074 1.44159 0.835721 1.44159H2.43473L3.55571 4.8053H15.5388L13.8916 8.8898H6.12862C5.61144 8.8898 5.11545 9.067 4.74975 9.3824C4.38405 9.69781 4.1786 10.1256 4.1786 10.5717C4.1786 11.0177 4.38405 11.4455 4.74975 11.7609C5.11545 12.0763 5.61144 12.2535 6.12862 12.2535H15.043C15.2646 12.2535 15.4772 12.1776 15.6339 12.0424C15.7906 11.9072 15.8787 11.7239 15.8787 11.5327C15.8787 11.3415 15.7906 11.1582 15.6339 11.023C15.4772 10.8879 15.2646 10.8119 15.043 10.8119Z" fill="white"/>
</svg>
