<svg width="33" height="32" viewBox="0 0 33 32" fill="none" xmlns="http://www.w3.org/2000/svg">
<g clip-path="url(#clip0_2_624)">
<path d="M11.2925 32C12.9539 32 14.3008 30.6569 14.3008 29C14.3008 27.3431 12.9539 26 11.2925 26C9.63101 26 8.28412 27.3431 8.28412 29C8.28412 30.6569 9.63101 32 11.2925 32Z" fill="#81C531"/>
<path d="M24.3287 32C25.9901 32 27.337 30.6569 27.337 29C27.337 27.3431 25.9901 26 24.3287 26C22.6672 26 21.3203 27.3431 21.3203 29C21.3203 30.6569 22.6672 32 24.3287 32Z" fill="#81C531"/>
<path d="M27.3371 22.5H11.2925C11.1595 22.5 11.032 22.4473 10.9379 22.3536C10.8439 22.2598 10.7911 22.1326 10.7911 22C10.7911 21.8674 10.8439 21.7402 10.9379 21.6464C11.032 21.5527 11.1595 21.5 11.2925 21.5H27.4037L32.4613 7H8.92741L6.90981 0H1.76602C1.36709 0 0.984493 0.158035 0.702404 0.43934C0.420316 0.720644 0.261841 1.10218 0.261841 1.5C0.261841 1.89782 0.420316 2.27936 0.702404 2.56066C0.984493 2.84196 1.36709 3 1.76602 3H4.64401L6.66162 10H28.2295L25.2648 18.5H11.2925C10.3616 18.5 9.46892 18.8687 8.81071 19.5251C8.15251 20.1815 7.78273 21.0717 7.78273 22C7.78273 22.9283 8.15251 23.8185 8.81071 24.4749C9.46892 25.1313 10.3616 25.5 11.2925 25.5H27.3371C27.736 25.5 28.1186 25.342 28.4007 25.0607C28.6828 24.7794 28.8412 24.3978 28.8412 24C28.8412 23.6022 28.6828 23.2206 28.4007 22.9393C28.1186 22.658 27.736 22.5 27.3371 22.5Z" fill="#81C531"/>
</g>
<defs>
<clipPath id="clip0_2_624">
<rect width="32.0891" height="32" fill="white" transform="translate(0.261841)"/>
</clipPath>
</defs>
</svg>
