<svg width="22" height="22" viewBox="0 0 22 22" fill="none" xmlns="http://www.w3.org/2000/svg">
<path d="M19.9375 2.75H15.125V2.02813C15.125 1.49023 14.9113 0.974371 14.531 0.594024C14.1506 0.213677 13.6348 0 13.0969 0L8.90312 0C8.36523 0 7.84937 0.213677 7.46902 0.594024C7.08868 0.974371 6.875 1.49023 6.875 2.02813V2.75H2.0625C1.88016 2.75 1.7053 2.82243 1.57636 2.95136C1.44743 3.0803 1.375 3.25516 1.375 3.4375C1.375 3.61984 1.44743 3.7947 1.57636 3.92364C1.7053 4.05257 1.88016 4.125 2.0625 4.125H3.33437L4.29688 19.6625C4.31419 20.277 4.56603 20.8615 5.00069 21.2962C5.43536 21.7309 6.0199 21.9827 6.63437 22H15.3656C15.9861 21.9914 16.5793 21.7434 17.0212 21.3078C17.4632 20.8723 17.7198 20.2828 17.7375 19.6625L18.6656 4.125H19.9375C20.1198 4.125 20.2947 4.05257 20.4236 3.92364C20.5526 3.7947 20.625 3.61984 20.625 3.4375C20.625 3.25516 20.5526 3.0803 20.4236 2.95136C20.2947 2.82243 20.1198 2.75 19.9375 2.75ZM8.25 2.02813C8.25 1.85491 8.31881 1.68878 8.4413 1.5663C8.56378 1.44381 8.72991 1.375 8.90312 1.375H13.0969C13.2701 1.375 13.4362 1.44381 13.5587 1.5663C13.6812 1.68878 13.75 1.85491 13.75 2.02813V2.75H8.25V2.02813ZM8.28438 19.25H8.25C8.07347 19.2502 7.90361 19.1825 7.77562 19.0609C7.64764 18.9394 7.57133 18.7732 7.5625 18.5969L6.875 6.22188C6.86588 6.03954 6.92957 5.86105 7.05206 5.72567C7.17454 5.59029 7.34579 5.50912 7.52812 5.5C7.71046 5.49088 7.88895 5.55457 8.02433 5.67706C8.15971 5.79954 8.24088 5.97079 8.25 6.15312L8.9375 18.5281C8.94213 18.6184 8.9289 18.7088 8.89856 18.794C8.86822 18.8791 8.82138 18.9575 8.76071 19.0246C8.70004 19.0916 8.62674 19.1461 8.545 19.1847C8.46326 19.2234 8.3747 19.2456 8.28438 19.25ZM11.6875 18.5625C11.6875 18.7448 11.6151 18.9197 11.4861 19.0486C11.3572 19.1776 11.1823 19.25 11 19.25C10.8177 19.25 10.6428 19.1776 10.5139 19.0486C10.3849 18.9197 10.3125 18.7448 10.3125 18.5625V6.1875C10.3125 6.00516 10.3849 5.8303 10.5139 5.70136C10.6428 5.57243 10.8177 5.5 11 5.5C11.1823 5.5 11.3572 5.57243 11.4861 5.70136C11.6151 5.8303 11.6875 6.00516 11.6875 6.1875V18.5625ZM14.4375 18.5969C14.4287 18.7732 14.3524 18.9394 14.2244 19.0609C14.0964 19.1825 13.9265 19.2502 13.75 19.25H13.7156C13.6253 19.2456 13.5367 19.2234 13.455 19.1847C13.3733 19.1461 13.3 19.0916 13.2393 19.0246C13.1786 18.9575 13.1318 18.8791 13.1014 18.794C13.0711 18.7088 13.0579 18.6184 13.0625 18.5281L13.75 6.15312C13.7591 5.97079 13.8403 5.79954 13.9757 5.67706C14.111 5.55457 14.2895 5.49088 14.4719 5.5C14.6542 5.50912 14.8255 5.59029 14.9479 5.72567C15.0704 5.86105 15.1341 6.03954 15.125 6.22188L14.4375 18.5969Z" fill="#3E1845"/>
</svg>
