<svg width="125" height="56" viewBox="0 0 125 56" fill="none" xmlns="http://www.w3.org/2000/svg">
<path d="M67.0317 28.31C75.32 28.31 82.0389 21.9726 82.0389 14.155C82.0389 6.33742 75.32 0 67.0317 0C58.7435 0 52.0245 6.33742 52.0245 14.155C52.0245 21.9726 58.7435 28.31 67.0317 28.31Z" fill="#9E2CB4"/>
<path d="M68.5325 28.3101V41.0566C68.5325 41.4302 68.3348 41.7884 67.983 42.0525C67.6312 42.3167 67.1541 42.4651 66.6565 42.4651C66.159 42.4651 65.6819 42.3167 65.3301 42.0525C64.9783 41.7884 64.7806 41.4302 64.7806 41.0566V28.3101" fill="#D3DDF1"/>
<path d="M59.2376 8.6042C58.0229 9.57057 57.0283 10.7462 56.3107 12.064C55.5931 13.3818 55.1665 14.816 55.0552 16.2845C54.944 17.7531 55.1503 19.2273 55.6624 20.6229C56.1745 22.0186 56.9823 23.3083 58.0397 24.4185C59.5116 25.9631 61.3404 27.1893 63.3941 28.0087C65.9573 28.5011 68.6155 28.3886 71.1181 27.6819C71.0988 27.6819 71.0827 27.6756 71.0635 27.6777C68.8629 27.9183 66.6313 27.6629 64.5634 26.934C62.4955 26.205 60.6542 25.0246 59.2 23.4957C57.3359 21.5336 56.3992 18.9757 56.5953 16.3832C56.7915 13.7906 58.1045 11.375 60.2464 9.66622C61.9329 8.3277 64.1312 7.6552 66.3593 7.79618C68.5875 7.93716 70.6635 8.88012 72.1322 10.4183C73.2785 11.6229 73.8546 13.1944 73.7338 14.7872C73.6129 16.3801 72.8051 17.8638 71.4879 18.9123C70.4641 19.7254 69.1294 20.134 67.7764 20.0484C66.4235 19.9629 65.163 19.3903 64.2714 18.4562C63.4195 17.5614 63.0612 14.646 64.6558 13.3766C65.0255 13.1134 65.4653 12.9449 65.9298 12.8884C66.3944 12.832 66.867 12.8896 67.2991 13.0554C67.5909 13.1648 67.8379 13.3547 68.0058 13.5986C68.1737 13.8426 68.2541 14.1284 68.2356 14.4161C68.2356 14.6025 68.3166 14.7813 68.4608 14.9131C68.605 15.0449 68.8006 15.119 69.0045 15.119C69.2084 15.119 69.404 15.0449 69.5481 14.9131C69.6923 14.7813 69.7733 14.6025 69.7733 14.4161C69.7908 13.8585 69.6251 13.3089 69.2975 12.8382C68.97 12.3675 68.4957 11.9974 67.9358 11.7755C67.2358 11.4977 66.4659 11.4008 65.7099 11.4952C64.9538 11.5897 64.2406 11.8719 63.6478 12.3111C61.4074 14.0928 61.7257 17.9164 63.1096 19.3734C64.269 20.5884 65.9083 21.3334 67.6679 21.4449C69.4274 21.5563 71.1634 21.0252 72.4951 19.968C73.2999 19.3279 73.9588 18.549 74.4343 17.676C74.9098 16.803 75.1925 15.8529 75.2662 14.88C75.34 13.9071 75.2034 12.9305 74.8642 12.0058C74.525 11.0812 73.9898 10.2267 73.2893 9.49121C71.553 7.67251 69.0985 6.55771 66.4641 6.39142C63.8298 6.22513 61.2309 7.02092 59.2376 8.6042V8.6042Z" fill="#6A1281"/>
<path opacity="0.1" d="M64.7806 28.3101V41.0566C64.7806 41.4302 65.0178 41.7884 65.44 42.0525C65.8621 42.3167 66.4347 42.4651 67.0317 42.4651V28.3101H64.7806Z" fill="#21205E"/>
<path opacity="0.1" d="M52.0245 14.155C52.0245 17.9092 53.6056 21.5096 56.42 24.1641C59.2344 26.8187 63.0516 28.31 67.0317 28.31V0C63.0516 0 59.2344 1.49133 56.42 4.14591C53.6056 6.80049 52.0245 10.4009 52.0245 14.155V14.155Z" fill="#21205E"/>
<path d="M4.09334 49.9247C2.66957 49.6044 1.62716 48.7692 0.966129 47.4191C0.322043 46.069 0 44.4673 0 42.6138C0 41.2637 0.161022 39.8565 0.483064 38.392C0.805107 36.9046 1.26275 35.4516 1.85598 34.0329C2.46617 32.6142 3.195 31.2985 4.04249 30.0857C4.88997 28.85 5.84762 27.7975 6.91545 26.9279C7.98327 26.0584 9.14432 25.452 10.3986 25.1088C11.1613 24.9028 11.8902 24.7999 12.5851 24.7999C13.9411 24.7999 15.0258 25.166 15.8394 25.8982C16.653 26.6076 17.0598 27.5229 17.0598 28.6441C17.0598 28.8729 17.0428 29.1017 17.009 29.3306C16.992 29.5365 16.9411 29.7653 16.8564 30.017C16.67 30.6806 16.3564 31.2756 15.9157 31.8019C15.492 32.3053 15.0004 32.6943 14.4411 32.9689C13.8987 33.2435 13.3394 33.3579 12.7631 33.3121C12.4919 33.2663 12.2546 33.1405 12.0512 32.9345C11.8647 32.7057 11.7715 32.4311 11.7715 32.1108C11.7715 31.7904 11.8732 31.4472 12.0766 31.0811C12.2631 31.1726 12.4749 31.2184 12.7122 31.2184C13.136 31.2184 13.5512 31.0811 13.958 30.8065C14.3648 30.5319 14.7038 30.1543 14.975 29.6738C15.2462 29.1933 15.3818 28.6555 15.3818 28.0606C15.3818 27.2597 15.1784 26.7334 14.7716 26.4817C14.3648 26.2071 13.9072 26.0698 13.3987 26.0698C13.0597 26.0698 12.7207 26.1156 12.3817 26.2071C12.0597 26.2758 11.7969 26.3444 11.5935 26.4131C10.6274 26.7563 9.63586 27.3856 8.61888 28.3009C7.61886 29.1933 6.70358 30.2916 5.87304 31.5959C5.04251 32.8773 4.39843 34.2846 3.94079 35.8177C3.6018 36.939 3.33908 38.0716 3.15263 39.2158C2.96618 40.3599 2.87296 41.4468 2.87296 42.4765C2.87296 43.8037 3.03398 44.9707 3.35603 45.9775C3.69502 46.9843 4.22893 47.6822 4.95777 48.0712C5.6188 48.4145 6.29679 48.5861 6.99172 48.5861C8.1104 48.5861 9.23755 48.22 10.3732 47.4877C11.5257 46.7555 12.5851 45.8288 13.5512 44.7075C14.1445 43.9982 14.6784 43.2659 15.153 42.5108C15.6276 41.7557 15.992 40.9548 16.2462 40.1082C16.5683 40.3828 16.7293 40.7832 16.7293 41.3095C16.7293 41.7214 16.6361 42.1676 16.4496 42.6481C16.2801 43.1287 16.0767 43.5749 15.8394 43.9867C15.6191 44.3986 15.4242 44.719 15.2547 44.9478C14.0682 46.6182 12.6444 47.8996 10.9834 48.792C9.33924 49.6845 7.66971 50.1307 5.97474 50.1307C5.33066 50.1307 4.70352 50.062 4.09334 49.9247Z" fill="#3E1845"/>
<path d="M24.5521 49.3069C24.0266 49.3069 23.6622 49.0323 23.4588 48.4831C23.2724 47.934 23.1791 47.2589 23.1791 46.458C23.1791 45.7258 23.23 45.005 23.3317 44.2957C23.3825 43.9753 23.4334 43.6549 23.4842 43.3346C23.552 42.9914 23.6283 42.6367 23.7131 42.2706C23.4249 42.9799 23.1198 43.6664 22.7978 44.33C22.4927 44.9936 22.1791 45.5771 21.8571 46.0805C21.3147 46.9729 20.7384 47.7166 20.1282 48.3115C19.535 48.9065 18.9417 49.2039 18.3485 49.2039C17.8739 49.2039 17.4671 48.9751 17.1281 48.5175C16.8061 48.0369 16.6451 47.2132 16.6451 46.0462C16.6451 44.8563 16.7976 43.6321 17.1027 42.3735C17.4078 41.115 17.8315 39.948 18.3739 38.8725C18.9333 37.7742 19.5858 36.8932 20.3316 36.2296C21.0943 35.566 21.9249 35.2342 22.8232 35.2342C23.1113 35.2342 23.4249 35.2914 23.7639 35.4058C24.1029 35.5203 24.4165 35.7376 24.7046 36.058C24.9928 36.3555 25.1877 36.7788 25.2894 37.328C25.3063 37.2822 25.3233 37.2479 25.3402 37.225C25.3741 37.2021 25.3995 37.1792 25.4165 37.1563C25.6538 36.6529 25.925 36.2296 26.2301 35.8864C26.5352 35.5431 26.8742 35.3715 27.2471 35.3715C27.4335 35.3715 27.6962 35.383 28.0352 35.4058C28.3742 35.4287 28.62 35.4287 28.7725 35.4058C28.6878 35.4974 28.5691 35.6804 28.4166 35.955C28.281 36.2296 28.1539 36.5156 28.0352 36.8131C27.9166 37.0877 27.8233 37.3051 27.7555 37.4653C27.2979 38.6551 26.8826 39.8336 26.5097 41.0006C26.1369 42.1676 25.8487 43.2888 25.6453 44.3643C25.5945 44.5931 25.5606 44.8105 25.5436 45.0164C25.5267 45.1995 25.5182 45.3826 25.5182 45.5656C25.5182 46.1606 25.6623 46.458 25.9504 46.458C26.2216 46.458 26.5606 46.2292 26.9674 45.7716C27.5606 45.1309 28.0776 44.33 28.5183 43.3689C28.9759 42.4079 29.3742 41.4811 29.7132 40.5887C29.781 40.4285 29.8403 40.3484 29.8912 40.3484C29.9929 40.3484 30.0437 40.5429 30.0437 40.9319C30.0437 41.115 30.0183 41.3209 29.9675 41.5498C29.9336 41.7786 29.8742 41.996 29.7895 42.2019C29.5522 42.7511 29.2386 43.4261 28.8488 44.227C28.4759 45.0279 28.0522 45.8173 27.5776 46.5953C27.103 47.3505 26.603 47.9912 26.0775 48.5175C25.569 49.0437 25.0606 49.3069 24.5521 49.3069ZM19.4926 46.3207C19.5434 46.3436 19.6197 46.3551 19.7214 46.3551C20.0435 46.3551 20.3909 46.172 20.7638 45.8059C21.1367 45.4398 21.5096 44.9707 21.8825 44.3986C22.2554 43.8037 22.5859 43.2087 22.874 42.6138C23.6198 41.012 24.1707 39.8107 24.5266 39.0098C24.8826 38.2089 25.086 37.7513 25.1368 37.6369C25.0521 37.2479 24.8995 36.9618 24.6792 36.7788C24.4758 36.5957 24.23 36.5042 23.9419 36.5042C23.569 36.5042 23.1707 36.6415 22.7469 36.9161C22.3401 37.1907 21.9927 37.5225 21.7045 37.9115C21.2638 38.5064 20.8401 39.273 20.4333 40.2111C20.0435 41.1493 19.7214 42.0761 19.4672 42.9914C19.2299 43.9067 19.1112 44.6732 19.1112 45.291C19.1112 45.8631 19.2384 46.2063 19.4926 46.3207Z" fill="#3E1845"/>
<path d="M35.5775 49.3069C35.0012 49.3069 34.6029 49.0781 34.3826 48.6204C34.1792 48.1399 34.0775 47.5907 34.0775 46.9729C34.0775 46.2178 34.1877 45.3139 34.408 44.2613C34.6284 43.1859 34.8826 42.1104 35.1707 41.0349C35.4758 39.9366 35.747 38.9641 35.9843 38.1174C36.0521 37.9115 36.086 37.6941 36.086 37.4653C36.086 37.2136 36.0267 37.0305 35.908 36.9161C35.7894 36.8017 35.6369 36.7445 35.4504 36.7445C35.1792 36.7445 34.8741 36.8589 34.5351 37.0877C34.0097 37.4538 33.5097 38.0373 33.0351 38.8382C32.5605 39.6391 32.1791 40.4743 31.891 41.3438C31.5689 42.3278 31.2808 43.3117 31.0266 44.2957C30.7723 45.2796 30.5689 46.0805 30.4164 46.6983C30.3147 47.0873 30.2214 47.4877 30.1367 47.8996C30.0519 48.3115 29.9672 48.712 29.8825 49.101H27.4163C27.4163 49.101 27.4756 48.8149 27.5943 48.2429C27.696 47.6708 27.8316 47.0987 28.001 46.5267C28.2892 45.5199 28.5773 44.513 28.8655 43.5062C29.1706 42.4994 29.4333 41.607 29.6536 40.829C29.7214 40.6001 29.8231 40.1768 29.9587 39.559C30.1113 38.9183 30.2469 38.2547 30.3655 37.5682C30.5011 36.8818 30.5689 36.3211 30.5689 35.8864C30.5689 35.6347 30.5435 35.4631 30.4926 35.3715C30.6452 35.3715 30.8147 35.3715 31.0011 35.3715C31.2045 35.3486 31.391 35.3372 31.5605 35.3372C31.7978 35.3372 32.0181 35.3486 32.2215 35.3715C32.4418 35.3944 32.5859 35.4516 32.6537 35.5431C32.8571 35.7491 32.9588 36.0466 32.9588 36.4356C32.9588 36.7101 32.9164 36.9847 32.8317 37.2593C32.7639 37.5339 32.713 37.7627 32.6791 37.9458C32.9164 37.6483 33.1622 37.3623 33.4165 37.0877C33.6707 36.8131 34.0605 36.4584 34.586 36.0237C34.8911 35.772 35.2724 35.566 35.7301 35.4058C36.1877 35.2457 36.603 35.1656 36.9759 35.1656C37.942 35.1656 38.4251 35.772 38.4251 36.9847C38.4251 37.1907 38.4081 37.4195 38.3742 37.6712C38.3573 37.9229 38.3064 38.1975 38.2217 38.495C38.1369 38.8611 38.0013 39.3645 37.8149 40.0052C37.6284 40.6459 37.4335 41.3324 37.2301 42.0646C37.0437 42.774 36.8827 43.449 36.7471 44.0897C36.6115 44.7304 36.5437 45.2453 36.5437 45.6343C36.5437 46.1835 36.6962 46.458 37.0013 46.458C37.2725 46.458 37.6115 46.2292 38.0183 45.7716C38.4081 45.3368 38.7471 44.8677 39.0353 44.3643C39.3912 43.7694 39.7132 43.1401 40.0014 42.4765C40.3065 41.79 40.5692 41.1608 40.7895 40.5887C40.8743 40.4056 40.9336 40.3141 40.9675 40.3141C41.0692 40.3141 41.1201 40.5086 41.1201 40.8976C41.1201 41.0807 41.0946 41.2981 41.0438 41.5498C41.0099 41.7786 40.9506 41.996 40.8658 42.2019C40.6285 42.7511 40.3488 43.3575 40.0268 44.0211C39.7048 44.6847 39.3742 45.3254 39.0353 45.9432C38.798 46.378 38.4844 46.8585 38.0945 47.3848C37.7047 47.9111 37.2894 48.3687 36.8488 48.7577C36.4081 49.1238 35.9843 49.3069 35.5775 49.3069Z" fill="#3E1845"/>
<path d="M47.7189 49.3069C47.2104 49.3069 46.8545 49.0552 46.6511 48.5518C46.4646 48.0255 46.3714 47.3733 46.3714 46.5953C46.3714 46.2292 46.3883 45.8631 46.4222 45.497C46.4561 45.108 46.4985 44.719 46.5494 44.33C46.5833 43.9867 46.6511 43.5749 46.7528 43.0943C46.8545 42.5909 46.9731 42.0532 47.1087 41.4811C46.7867 42.3507 46.4138 43.2431 45.99 44.1584C45.5663 45.0508 45.1002 45.886 44.5917 46.664C44.1001 47.4191 43.5832 48.0369 43.0408 48.5175C42.5154 48.9751 41.9814 49.2039 41.4391 49.2039C40.9645 49.2039 40.5577 48.9751 40.2187 48.5175C39.8966 48.0369 39.7356 47.2132 39.7356 46.0462C39.7356 44.8563 39.8882 43.6321 40.1933 42.3735C40.4983 41.115 40.9221 39.948 41.4645 38.8725C42.0238 37.7742 42.6764 36.8932 43.4222 36.2296C44.1849 35.566 45.0154 35.2342 45.9138 35.2342C46.2866 35.2342 46.7019 35.3372 47.1596 35.5431C47.6172 35.7491 47.9647 36.1495 48.202 36.7445C48.2867 36.5614 48.3545 36.3783 48.4053 36.1953C48.4562 36.0122 48.507 35.8521 48.5579 35.7148C48.9647 34.502 49.3122 33.3579 49.6003 32.2824C49.8884 31.2069 50.1427 30.3717 50.363 29.7768C50.6512 28.9988 50.88 28.4153 51.0495 28.0263C51.219 27.6144 51.3715 27.3284 51.5071 27.1682C51.6597 27.008 51.8292 26.8936 52.0156 26.8249C52.1682 26.7792 52.3377 26.7449 52.5241 26.722C52.7106 26.6991 52.9055 26.6877 53.1089 26.6877C53.3123 26.6877 53.5411 26.6877 53.7953 26.6877C54.0665 26.6877 54.236 26.6762 54.3038 26.6533C54.0157 26.9279 53.6767 27.4885 53.2868 28.3352C52.897 29.1818 52.4902 30.2001 52.0665 31.39C51.6427 32.5799 51.2275 33.8498 50.8207 35.1999C50.4308 36.5271 50.0664 37.8543 49.7274 39.1814C49.4054 40.4857 49.1427 41.6756 48.9393 42.7511C48.7528 43.8266 48.6596 44.6961 48.6596 45.3597C48.6596 46.0919 48.8121 46.458 49.1172 46.458C49.3206 46.458 49.5579 46.3207 49.8291 46.0462C50.1173 45.7716 50.38 45.4627 50.6173 45.1194C50.8546 44.7762 51.0241 44.5245 51.1258 44.3643C51.4648 43.7694 51.7868 43.1401 52.0919 42.4765C52.397 41.79 52.6597 41.1493 52.8801 40.5544C52.9648 40.3713 53.0241 40.2798 53.058 40.2798C53.1767 40.2798 53.236 40.4857 53.236 40.8976C53.236 41.3324 53.1512 41.7443 52.9818 42.1333C52.7445 42.6824 52.4563 43.3003 52.1173 43.9867C51.7953 44.6503 51.4648 45.3025 51.1258 45.9432C50.8885 46.3551 50.5749 46.8242 50.1851 47.3505C49.8122 47.8767 49.4054 48.3344 48.9647 48.7234C48.5409 49.1124 48.1257 49.3069 47.7189 49.3069ZM42.5832 46.3207C42.634 46.3436 42.7103 46.3551 42.812 46.3551C43.2866 46.3551 43.8374 45.9317 44.4646 45.0851C45.1086 44.2156 45.7527 43.0829 46.3968 41.6871C46.5324 41.4125 46.6934 41.0235 46.8799 40.5201C47.0663 40.0166 47.2613 39.4675 47.4646 38.8725C47.685 38.2547 47.8884 37.6826 48.0748 37.1563C47.9562 36.9275 47.8036 36.7673 47.6172 36.6758C47.4477 36.5843 47.2612 36.5385 47.0579 36.5385C46.685 36.5385 46.2866 36.6758 45.8629 36.9504C45.4392 37.2021 45.0832 37.5225 44.7951 37.9115C44.3544 38.5064 43.9306 39.273 43.5239 40.2111C43.134 41.1493 42.812 42.0761 42.5577 42.9914C42.3204 43.9067 42.2018 44.6732 42.2018 45.291C42.2018 45.8631 42.3289 46.2063 42.5832 46.3207Z" fill="#3E1845"/>
<path d="M52.8187 56C52.3949 56 51.9458 55.9085 51.4712 55.7254C51.0135 55.5652 50.6322 55.2792 50.3271 54.8673C50.005 54.4554 49.844 53.9063 49.844 53.2198C49.844 52.7393 49.9542 52.2931 50.1745 51.8812C50.3949 51.4693 50.7 51.2633 51.0898 51.2633C51.3271 51.2633 51.5475 51.3434 51.7508 51.5036C51.9542 51.6867 52.0898 51.904 52.1576 52.1558C52.1237 52.1786 52.0729 52.2473 52.0051 52.3617C51.9373 52.4761 51.8949 52.5562 51.878 52.602C51.7593 52.9223 51.7 53.2541 51.7 53.5973C51.7 54.0321 51.8102 54.3753 52.0305 54.6271C52.2678 54.9016 52.5644 55.0389 52.9204 55.0389C53.378 55.0389 53.8526 54.8101 54.3441 54.3525C54.8865 53.8262 55.3103 53.1397 55.6154 52.2931C55.9374 51.4693 56.1917 50.7256 56.3781 50.062L57.8273 44.8448C57.5222 45.3482 57.2002 45.8631 56.8612 46.3894C56.5391 46.8928 56.3357 47.2017 56.251 47.3161C55.6069 48.1857 55.0306 48.7348 54.5221 48.9637C54.0136 49.1925 53.5645 49.3069 53.1746 49.3069C52.7678 49.3069 52.4204 49.0666 52.1322 48.5861C51.861 48.1056 51.7254 47.4077 51.7254 46.4924C51.7254 46.0347 51.7763 45.4512 51.878 44.7419C51.9797 44.0325 52.1237 43.2774 52.3102 42.4765C52.4966 41.6527 52.7085 40.8519 52.9458 40.0739C53.2 39.273 53.4712 38.5636 53.7594 37.9458C54.2001 37.0076 54.6916 36.4012 55.234 36.1266C55.7764 35.8521 56.4628 35.7148 57.2934 35.7148C57.3612 35.7148 57.3951 35.7605 57.3951 35.8521C57.3951 35.9436 57.3442 36.058 57.2425 36.1953C57.0052 36.4699 56.7171 36.9504 56.3781 37.6369C56.0391 38.3234 55.7086 39.0785 55.3865 39.9022C55.0815 40.726 54.8272 41.5154 54.6238 42.2706C54.4882 42.7969 54.3526 43.4147 54.217 44.124C54.0984 44.8334 54.039 45.4512 54.039 45.9775C54.039 46.3436 54.0729 46.6411 54.1407 46.8699C54.2255 47.0759 54.3526 47.1788 54.5221 47.1788C54.7933 47.1788 55.1662 46.9042 55.6408 46.3551C56.3527 45.5542 56.9968 44.5702 57.573 43.4032C58.1493 42.2362 58.6409 41.0235 59.0477 39.7649C59.285 39.0327 59.4799 38.4149 59.6324 37.9115C59.785 37.3852 59.9545 36.9618 60.1409 36.6415C60.3274 36.3211 60.5901 36.0923 60.9291 35.955C61.2681 35.7948 61.7257 35.7148 62.302 35.7148H63.3444C63.0224 35.9893 62.7003 36.5042 62.3783 37.2593C62.0562 37.9916 61.7511 38.8611 61.463 39.8679C61.2426 40.6001 61.0138 41.401 60.7765 42.2706C60.5562 43.1401 60.3274 44.0211 60.0901 44.9135C59.8867 45.7372 59.6663 46.6411 59.429 47.625C59.1917 48.5861 58.9205 49.5243 58.6154 50.4396C58.3104 51.3778 57.9544 52.1901 57.5476 52.8765C56.9713 53.8376 56.2679 54.5927 55.4374 55.1419C54.6069 55.714 53.734 56 52.8187 56Z" fill="#3E1845"/>
<path d="M76.0975 49.7874C75.25 49.7874 74.4619 49.6845 73.733 49.4785C73.0042 49.2726 72.394 48.9293 71.9025 48.4488C71.5635 48.1056 71.3008 47.6708 71.1143 47.1445C70.9448 46.6182 70.8601 46.0805 70.8601 45.5313C70.8601 44.8448 71.0042 44.2041 71.2923 43.6092C71.5804 43.0142 72.0381 42.6138 72.6652 42.4079C72.75 42.385 72.8262 42.3735 72.894 42.3735C72.9788 42.3507 73.0551 42.3392 73.1229 42.3392C73.4619 42.3392 73.7585 42.4422 74.0127 42.6481C74.2839 42.8541 74.4704 43.0943 74.5721 43.3689C74.5043 43.4376 74.411 43.5634 74.2924 43.7465C74.1737 43.9067 74.0975 44.0439 74.0636 44.1584C73.8093 44.7304 73.6822 45.3025 73.6822 45.8745C73.6822 46.6525 73.9025 47.2932 74.3432 47.7967C74.8009 48.2772 75.3941 48.5175 76.123 48.5175C76.784 48.5175 77.4026 48.3001 77.9789 47.8653C78.5722 47.4077 79.0468 46.8013 79.4027 46.0462C79.7756 45.291 79.962 44.4215 79.962 43.4376C79.962 42.7053 79.8349 41.9273 79.5807 41.1036C79.3603 40.3942 79.0552 39.7649 78.6654 39.2158C78.2925 38.6666 77.9366 38.1517 77.5976 37.6712C77.1399 37.0076 76.6992 36.3669 76.2755 35.7491C75.8687 35.1084 75.5297 34.4219 75.2585 33.6897C75.0043 32.9345 74.8772 32.0879 74.8772 31.1497C74.8772 30.2573 75.0128 29.3878 75.2839 28.5411C75.5721 27.6945 75.9789 26.9737 76.5043 26.3787C77.0976 25.6923 77.7755 25.2117 78.5383 24.9372C79.301 24.6626 80.0976 24.5253 80.9282 24.5253C81.9621 24.5253 82.7757 24.7083 83.3689 25.0744C83.9791 25.4177 84.4113 25.8639 84.6656 26.4131C84.9368 26.9622 85.0724 27.5457 85.0724 28.1636C85.0724 28.7585 84.9707 29.3306 84.7673 29.8797C84.5808 30.4289 84.3181 30.898 83.9791 31.287C83.6401 31.6531 83.2672 31.882 82.8604 31.9735C82.7926 31.9964 82.7248 32.0078 82.657 32.0078C82.5892 32.0078 82.513 32.0078 82.4282 32.0078C82.0553 32.0078 81.7248 31.8934 81.4367 31.6646C81.1655 31.4358 81.0299 31.0468 81.0299 30.4976C81.0299 30.4289 81.0299 30.3488 81.0299 30.2573C81.0468 30.1658 81.0638 30.0742 81.0807 29.9827C81.3858 29.9827 81.6994 29.834 82.0214 29.5365C82.3435 29.239 82.5553 28.9072 82.657 28.5411C82.7418 28.2437 82.7841 27.9691 82.7841 27.7174C82.7841 27.0995 82.5723 26.619 82.1485 26.2758C81.7417 25.9097 81.2587 25.7266 80.6993 25.7266C80.0383 25.7266 79.4451 25.9211 78.9196 26.3101C78.4111 26.6762 78.0128 27.1682 77.7247 27.786C77.4365 28.381 77.2925 29.0331 77.2925 29.7425C77.2925 30.4518 77.4535 31.1383 77.7755 31.8019C78.0467 32.3282 78.3857 32.8773 78.7925 33.4494C79.1993 33.9986 79.6146 34.5363 80.0383 35.0626C80.4621 35.566 80.8265 36.0351 81.1316 36.4699C81.8265 37.3852 82.3265 38.3234 82.6316 39.2844C82.9367 40.2226 83.0892 41.1493 83.0892 42.0646C83.0892 43.1172 82.9028 44.1126 82.5299 45.0508C82.174 45.9661 81.6739 46.7784 81.0299 47.4877C80.3858 48.1971 79.64 48.7577 78.7925 49.1696C77.945 49.5815 77.0467 49.7874 76.0975 49.7874Z" fill="#3E1845"/>
<path d="M90.5243 49.3069C89.948 49.3069 89.5497 49.0781 89.3294 48.6204C89.126 48.1399 89.0243 47.5907 89.0243 46.9729C89.0243 46.3093 89.1005 45.5427 89.2531 44.6732C89.4226 43.7808 89.626 42.8655 89.8633 41.9273C90.1175 40.9663 90.3718 40.0739 90.626 39.2501C90.7107 38.9755 90.787 38.678 90.8548 38.3577C90.9396 38.0373 90.9819 37.7513 90.9819 37.4996C90.9819 37.0419 90.8294 36.8131 90.5243 36.8131C90.4057 36.8131 90.2701 36.8474 90.1175 36.9161C89.965 36.9618 89.787 37.0648 89.5836 37.225C89.2277 37.4538 88.8887 37.7742 88.5666 38.1861C88.2446 38.5751 88.0242 38.8725 87.9056 39.0785C87.6852 39.4446 87.4734 39.8565 87.27 40.3141C87.0666 40.7489 86.8886 41.1951 86.7361 41.6527C86.3971 42.6367 86.1259 43.5749 85.9225 44.4673C85.736 45.3368 85.5581 46.0805 85.3886 46.6983C85.2869 47.0873 85.1852 47.4877 85.0835 47.8996C84.9818 48.3115 84.8886 48.712 84.8038 49.101H82.3376C82.3376 49.101 82.397 48.8149 82.5156 48.2429C82.6343 47.6708 82.7783 47.0987 82.9478 46.5267C83.7275 43.8037 84.4648 41.0235 85.1597 38.1861C85.8547 35.3486 86.6937 32.6256 87.6768 30.017C88.1175 28.85 88.592 27.7746 89.1005 26.7906C89.626 25.8067 90.1768 25.0287 90.7531 24.4566C91.3464 23.8617 91.965 23.5642 92.6091 23.5642C93.1176 23.5642 93.4651 23.7244 93.6515 24.0447C93.8549 24.3422 93.9566 24.7198 93.9566 25.1774C93.9566 25.6808 93.8803 26.2071 93.7278 26.7563C93.5752 27.3055 93.4227 27.7746 93.2701 28.1636C92.9651 28.9873 92.5667 29.9141 92.0752 30.9438C91.5837 31.9735 91.0667 32.9345 90.5243 33.827C90.4057 34.0329 90.2023 34.3647 89.9141 34.8223C89.626 35.2571 89.3294 35.7033 89.0243 36.161C88.7361 36.6186 88.5073 36.9733 88.3378 37.225C88.8971 36.6758 89.3802 36.2525 89.787 35.955C90.1938 35.6576 90.5413 35.4516 90.8294 35.3372C91.3209 35.1541 91.7277 35.0626 92.0498 35.0626C93.0159 35.0626 93.499 35.6347 93.499 36.7788C93.499 37.2593 93.3973 37.8314 93.1939 38.495C93.0922 38.8611 92.9481 39.3531 92.7617 39.9709C92.5752 40.5887 92.3803 41.2523 92.1769 41.9617C91.9904 42.6481 91.8294 43.3117 91.6938 43.9524C91.5752 44.5931 91.5159 45.1194 91.5159 45.5313C91.5159 45.783 91.5413 46.0118 91.5921 46.2178C91.6599 46.4008 91.7786 46.4924 91.9481 46.4924C92.0667 46.4924 92.2362 46.4123 92.4566 46.2521C92.9311 45.886 93.3718 45.3711 93.7786 44.7075C94.2024 44.0439 94.5753 43.3346 94.8973 42.5795C95.2363 41.8244 95.5244 41.1379 95.7617 40.5201C95.8126 40.3599 95.8719 40.2798 95.9397 40.2798C96.0245 40.2798 96.0668 40.4743 96.0668 40.8633C96.0668 41.0464 96.0499 41.2637 96.016 41.5154C95.9821 41.7443 95.9143 41.9731 95.8126 42.2019C95.5753 42.7511 95.2617 43.4261 94.8719 44.227C94.499 45.0279 94.0752 45.8173 93.6007 46.5953C93.1261 47.3505 92.6261 47.9912 92.1006 48.5175C91.5752 49.0437 91.0497 49.3069 90.5243 49.3069ZM87.6005 36.9847C88.448 35.6347 89.3039 34.1931 90.1684 32.66C91.0497 31.104 91.7786 29.5251 92.3549 27.9233C92.3888 27.8089 92.465 27.5801 92.5837 27.2368C92.7023 26.8936 92.8125 26.516 92.9142 26.1042C93.0159 25.6694 93.0667 25.3033 93.0667 25.0058C93.0667 24.6168 92.9566 24.4223 92.7362 24.4223C92.5159 24.4223 92.2532 24.6282 91.9481 25.0401C91.6599 25.452 91.3633 26.0012 91.0582 26.6877C90.6684 27.5572 90.2701 28.564 89.8633 29.7081C89.4565 30.8294 89.0582 32.0193 88.6683 33.2778C88.2954 34.5363 87.9395 35.772 87.6005 36.9847Z" fill="#3E1845"/>
<path d="M97.757 49.3755C96.9773 49.3755 96.2993 49.0438 95.723 48.3802C95.1637 47.7166 94.884 46.6525 94.884 45.1881C94.884 44.1126 95.0281 42.9914 95.3162 41.8244C95.6044 40.6574 96.0111 39.5704 96.5366 38.5636C97.079 37.5568 97.7315 36.733 98.4943 36.0923C99.257 35.4516 100.113 35.1313 101.062 35.1313C101.842 35.1313 102.444 35.3372 102.867 35.7491C103.308 36.1381 103.622 36.6644 103.808 37.328C103.994 37.9916 104.088 38.7009 104.088 39.456C104.088 40.0281 104.037 40.6116 103.935 41.2065C103.85 41.7786 103.723 42.3507 103.554 42.9227C103.842 43.3804 104.206 43.6092 104.647 43.6092C105.122 43.6092 105.562 43.3689 105.969 42.8884C106.206 42.6138 106.418 42.2706 106.605 41.8587C106.808 41.4239 106.986 41.0235 107.139 40.6574C107.189 40.5201 107.249 40.4514 107.317 40.4514C107.401 40.4514 107.444 40.6116 107.444 40.9319C107.444 41.1379 107.418 41.3781 107.367 41.6527C107.333 41.9273 107.249 42.2019 107.113 42.4765C106.859 43.0714 106.596 43.5291 106.325 43.8494C106.054 44.1469 105.749 44.3872 105.41 44.5702C105.155 44.7075 104.884 44.7762 104.596 44.7762C104.071 44.7762 103.596 44.5588 103.172 44.124C103.037 44.513 102.867 44.9135 102.664 45.3254C102.172 46.4466 101.537 47.4077 100.757 48.2085C99.9774 48.9865 98.9773 49.3755 97.757 49.3755ZM98.7231 48.0712C99.1129 48.0712 99.4858 47.8996 99.8418 47.5564C100.215 47.1903 100.554 46.7441 100.859 46.2178C101.164 45.6915 101.427 45.1423 101.647 44.5702C101.884 43.9982 102.079 43.4948 102.232 43.06C101.655 42.3964 101.367 41.5612 101.367 40.5544C101.367 39.8908 101.503 39.3759 101.774 39.0098C102.045 38.6437 102.418 38.4835 102.893 38.5293C102.876 38.003 102.774 37.5682 102.588 37.225C102.401 36.8818 102.096 36.7101 101.672 36.7101C101.282 36.7101 100.91 36.8703 100.554 37.1907C100.215 37.511 99.8926 37.9229 99.5875 38.4263C99.2994 38.9069 99.0367 39.4103 98.7994 39.9366C98.579 40.44 98.3926 40.8976 98.24 41.3095C98.0197 41.9044 97.8163 42.6252 97.6298 43.4719C97.4434 44.3185 97.3502 45.108 97.3502 45.8402C97.3502 46.4809 97.4434 47.0187 97.6298 47.4534C97.8332 47.8653 98.1976 48.0712 98.7231 48.0712Z" fill="#3E1845"/>
<path d="M107.449 49.3069C107.009 49.3069 106.636 49.0209 106.331 48.4488C106.042 47.8539 105.932 47.0301 106 45.9775C106.034 45.3139 106.161 44.4673 106.381 43.4376C106.602 42.4079 106.873 41.3667 107.195 40.3141C107.534 39.2386 107.873 38.3348 108.212 37.6026C108.653 36.6644 109.144 36.058 109.687 35.7834C110.229 35.5088 110.924 35.3715 111.771 35.3715C111.822 35.3715 111.848 35.4058 111.848 35.4745C111.848 35.5889 111.797 35.7148 111.695 35.8521C111.458 36.1266 111.187 36.6072 110.882 37.2936C110.593 37.9572 110.314 38.7009 110.043 39.5247C109.771 40.3484 109.534 41.1379 109.331 41.893C109.297 42.0532 109.22 42.3621 109.102 42.8197C108.983 43.2774 108.873 43.7808 108.771 44.33C108.67 44.8563 108.619 45.3482 108.619 45.8059C108.619 46.172 108.67 46.4809 108.771 46.7326C108.873 46.9615 109.042 47.0759 109.28 47.0759C109.602 47.053 109.949 46.7898 110.322 46.2864C110.695 45.7601 111.068 45.0965 111.441 44.2957C111.814 43.4948 112.17 42.6824 112.509 41.8587C112.848 41.012 113.144 40.2569 113.399 39.5933C113.67 38.9069 113.865 38.4263 113.983 38.1517C114.238 37.6026 114.509 37.1335 114.797 36.7445C115.085 36.3326 115.416 36.1266 115.788 36.1266C115.924 36.1266 116.127 36.1381 116.399 36.161C116.67 36.161 116.924 36.161 117.161 36.161C117.416 36.161 117.585 36.1495 117.67 36.1266C117.602 36.1724 117.5 36.2754 117.365 36.4356C117.229 36.5728 117.127 36.733 117.06 36.9161C116.788 37.6254 116.517 38.3691 116.246 39.1471C115.975 39.9251 115.704 40.8404 115.433 41.893C115.399 42.0532 115.314 42.3621 115.178 42.8197C115.06 43.2774 114.949 43.7808 114.848 44.33C114.746 44.8563 114.695 45.3482 114.695 45.8059C114.695 46.3551 114.763 46.7441 114.899 46.9729C115.051 47.2017 115.238 47.3161 115.458 47.3161C115.763 47.3161 116.102 47.156 116.475 46.8356C116.865 46.4924 117.212 46.0805 117.517 45.6C118.043 44.7762 118.458 43.9181 118.763 43.0257C119.085 42.1104 119.305 41.4239 119.424 40.9663C119.39 40.7146 119.356 40.44 119.322 40.1425C119.305 39.845 119.297 39.5476 119.297 39.2501C119.297 38.8382 119.322 38.4149 119.373 37.9801C119.441 37.5453 119.534 37.122 119.653 36.7101C119.873 35.9779 120.187 35.5317 120.594 35.3715C120.661 35.3486 120.721 35.3372 120.772 35.3372C120.839 35.3143 120.907 35.3029 120.975 35.3029C121.297 35.3029 121.509 35.4516 121.611 35.7491C121.729 36.0466 121.789 36.4012 121.789 36.8131C121.789 37.225 121.755 37.6369 121.687 38.0488C121.619 38.4378 121.551 38.7467 121.484 38.9755C121.365 39.4103 121.229 39.8336 121.077 40.2455C120.924 40.6345 120.78 41.0235 120.645 41.4125C120.645 41.5498 120.67 41.7443 120.721 41.996C120.907 43.0943 121.323 43.6435 121.967 43.6435C122.356 43.6435 122.763 43.3918 123.187 42.8884C123.424 42.6138 123.636 42.2706 123.823 41.8587C124.026 41.4239 124.204 41.0235 124.356 40.6574C124.441 40.4743 124.492 40.4285 124.509 40.5201C124.543 40.6116 124.56 40.7603 124.56 40.9663C124.56 41.1951 124.543 41.4582 124.509 41.7557C124.475 42.0532 124.416 42.2934 124.331 42.4765C124.077 43.0714 123.814 43.5291 123.543 43.8494C123.272 44.1469 122.967 44.3872 122.628 44.5702C122.492 44.6389 122.348 44.6961 122.195 44.7419C122.043 44.7876 121.899 44.8105 121.763 44.8105C121.356 44.8105 120.984 44.6618 120.645 44.3643C120.322 44.0439 120.085 43.552 119.933 42.8884L119.856 42.5452C119.687 42.9342 119.492 43.3804 119.272 43.8838C119.051 44.3872 118.839 44.8448 118.636 45.2567C118.45 45.6686 118.305 45.9661 118.204 46.1491C117.627 47.1331 117 47.9111 116.322 48.4831C115.661 49.0552 114.958 49.3412 114.212 49.3412C114.127 49.3412 114.043 49.3412 113.958 49.3412C113.873 49.3412 113.788 49.3298 113.704 49.3069C113.06 49.1925 112.627 48.8035 112.407 48.1399C112.187 47.4534 112.076 46.767 112.076 46.0805C112.076 45.8288 112.085 45.5885 112.102 45.3597C112.136 45.108 112.161 44.902 112.178 44.7419C111.924 45.2224 111.653 45.6686 111.365 46.0805C111.093 46.4924 110.814 46.9042 110.526 47.3161C109.881 48.1857 109.305 48.7348 108.797 48.9637C108.288 49.1925 107.839 49.3069 107.449 49.3069Z" fill="#3E1845"/>
</svg>
